<?xml version="1.0" encoding="UTF-8" standalone="no"?>
<!-- Created with Inkscape (http://www.inkscape.org/) -->

<svg
   width="270.93332mm"
   height="92.604172mm"
   viewBox="0 0 270.93332 92.604172"
   version="1.1"
   id="svg1"
   xml:space="preserve"
   xmlns:inkscape="http://www.inkscape.org/namespaces/inkscape"
   xmlns:sodipodi="http://sodipodi.sourceforge.net/DTD/sodipodi-0.dtd"
   xmlns="http://www.w3.org/2000/svg"
   xmlns:svg="http://www.w3.org/2000/svg"><sodipodi:namedview
     id="namedview1"
     pagecolor="#ffffff"
     bordercolor="#000000"
     borderopacity="0.25"
     inkscape:showpageshadow="2"
     inkscape:pageopacity="0.0"
     inkscape:pagecheckerboard="0"
     inkscape:deskcolor="#d1d1d1"
     inkscape:document-units="mm"><inkscape:page
       x="0"
       y="0"
       width="270.93332"
       height="92.604172"
       id="page2"
       margin="0"
       bleed="0" /></sodipodi:namedview><defs
     id="defs1" /><g
     inkscape:label="Layer 1"
     inkscape:groupmode="layer"
     id="layer1"
     transform="translate(34.371956,-127.15522)"><g
       id="g1"
       transform="translate(-0.36802974,110.0409)"><path
         style="fill:#f7f8f8"
         d="M -34.003929,98.873984 V 88.029501 l 99.020307,-0.08512 c 89.441862,-0.07689 99.229582,-0.126044 101.183732,-0.508189 6.72805,-1.315707 9.8785,-3.276906 12.34287,-7.683615 1.05087,-1.879137 1.66669,-3.336715 3.07356,-7.274742 l 0.96904,-2.712508 1.28406,3.109383 c 3.39676,8.225334 5.44064,11.165691 8.96835,12.901971 4.00258,1.970001 7.36853,2.240826 27.88567,2.243691 l 16.20573,0.0023 V 98.870551 109.71847 H 101.46273 -34.003929 Z m 44.024758,9.505996 c 0.08124,-0.0813 0.07759,-0.73989 -0.0081,-1.46348 l -0.1558154,-1.31562 -2.4173961,0.21525 c -3.7173679,0.33101 -3.6390353,0.41563 -3.5495698,-3.83456 l 0.073841,-3.507894 2.9765623,-0.07481 2.9765624,-0.07481 V 96.877513 95.43097 l -3.2411457,0.0015 c -1.7826301,8.11e-4 -3.6887558,0.125781 -4.235835,0.27771 -1.65057637,0.458382 -1.78201781,0.894101 -1.85289742,6.14223 -0.0588948,4.36074 -0.0281372,4.69888 0.49111882,5.39919 0.852371,1.14958 1.9497514,1.41347 5.575725,1.3408 1.7705913,-0.0355 3.2857238,-0.13107 3.3669609,-0.21239 z m 143.300231,-3.6886 v -3.96875 h -2.64583 -2.64584 v 1.19063 1.19062 h 1.05834 1.05833 v 1.45521 1.45521 h -1.79917 c -1.04657,0 -1.93197,-0.13281 -2.11666,-0.3175 -0.39996,-0.39996 -0.43634,-6.109812 -0.0436,-6.843643 0.2471,-0.461714 0.58016,-0.511772 3.40496,-0.511772 h 3.13108 l 0.164,-0.992188 c 0.35223,-2.131034 0.64947,-1.987219 -3.86508,-1.870063 -4.24967,0.110282 -5.41115,0.403052 -6.00561,1.513816 -0.29294,0.547366 -0.44737,3.90384 -0.34439,7.48524 0.10854,3.77458 0.66425,4.11022 6.87917,4.15486 l 3.77031,0.0271 z m 17.99167,0 v -3.96875 h -2.64584 -2.64583 v 1.26377 1.26376 l 1.05833,-0.10093 1.05834,-0.10093 v 1.483 1.483 h -1.84278 c -2.31934,0 -2.39056,-0.11429 -2.39056,-3.83646 0,-1.5471 0.12326,-3.043208 0.2739,-3.324683 0.24736,-0.462198 0.58054,-0.511772 3.43958,-0.511772 h 3.16569 v -1.036694 c 0,-0.570182 0.078,-1.239999 0.17337,-1.488483 0.16,-0.416947 -0.14098,-0.442831 -3.90261,-0.335635 -4.29831,0.122491 -5.4592,0.414655 -6.0525,1.52324 -0.358,0.668923 -0.35954,9.411667 -0.002,10.080147 0.63591,1.18821 2.04228,1.51461 6.67467,1.54909 l 3.63802,0.0271 z m -196.909063,-0.7276 c -0.07555,-2.43747 -0.07657,-4.253177 -0.0023,-4.034895 0.0743,0.218285 0.607133,1.736325 1.184079,3.373435 l 1.048992,2.97656 h 1.531241 1.531241 l 0.462702,-1.12447 c 0.254486,-0.61847 0.798643,-2.13652 1.209238,-3.37344 l 0.746536,-2.24896 0.01011,4.43177 0.01012,4.43177 1.521354,-3.7e-4 1.521355,-3.7e-4 v -6.37547 -6.375468 l -2.116667,-0.0028 -2.116667,-0.0028 -1.250102,3.137492 c -0.687556,1.725626 -1.253103,3.345856 -1.256771,3.600516 -0.01208,0.83864 -0.473296,0.48246 -0.659326,-0.50916 -0.100311,-0.53471 -0.636037,-2.112287 -1.190503,-3.505736 l -1.008119,-2.533544 -2.146235,-0.07685 -2.146235,-0.07685 v 6.3607 6.3607 h 1.626646 1.626645 z m 16.1137341,3.04271 0.3655144,-1.25677 h 2.2145622 2.2145621 l 0.3173628,1.32291 0.3173628,1.32292 h 1.7803822 1.78038217 l -1.87019327,-6.35 -1.8701933,-6.349999 -2.6485576,0.0028 -2.6485577,0.0028 -1.8788709,6.358409 -1.87887,6.35841 1.7198,-0.0773 1.7197998,-0.0773 z m 1.2174165,-4.10104 c 0.074735,-0.25466 0.4090026,-1.45851 0.7428166,-2.67522 l 0.6069344,-2.212204 0.5611077,2.079904 c 0.3086092,1.14395 0.6510952,2.3478 0.76108,2.67523 0.191803,0.57099 0.1385344,0.59531 -1.3039243,0.59531 -1.3076582,0 -1.4861658,-0.0604 -1.3680144,-0.46302 z m 23.4737504,2.97656 v -2.51354 h 2.100966 2.100965 l -0.05044,2.51375 -0.05044,2.51375 1.785937,-2.1e-4 1.785938,-2.1e-4 v -6.35 -6.349999 l -1.785938,-6.07e-4 -1.785937,-6.08e-4 0.08492,2.381858 0.08492,2.381856 h -2.135444 -2.135444 v -2.381249 -2.38125 H 13.48878 11.768988 v 6.349999 6.35 h 1.719792 1.719791 z m 13.229166,-3.83646 v -6.349999 h -1.719791 -1.719792 v 6.349999 6.35 h 1.719792 1.719791 z m 5.303808,2.31511 0.01214,-4.0349 0.762236,1.5875 c 0.419229,0.87312 1.404253,2.65906 2.188942,3.96875 l 1.426706,2.38125 2.036979,0.0774 2.036979,0.0774 -0.07088,-6.38979 -0.07088,-6.389789 -1.653807,-0.03757 -1.653807,-0.03757 -0.01038,3.836458 -0.01038,3.836461 -0.527109,-1.05688 c -0.289909,-0.58128 -1.267431,-2.277579 -2.17227,-3.769555 l -1.645161,-2.712683 -1.918229,-7.55e-4 -1.918229,-7.55e-4 v 6.349998 6.35 h 1.5875 1.5875 z m 20.096191,2.69763 v -1.33727 l -2.976562,0.0485 -2.976563,0.0485 -0.07997,-1.35709 -0.07997,-1.35709 h 2.65966 2.65966 v -1.19062 -1.19063 H 50.39815 47.752317 v -1.181955 -1.18196 l 2.976562,-0.07481 2.976562,-0.07481 0.08064,-1.256771 0.08064,-1.256771 H 49.08973 44.312733 v 6.349997 6.35 h 4.7625 4.7625 z m 16.139582,-3.7e-4 v -1.33764 l -2.84427,0.049 -2.844271,0.049 -0.07186,-5.06139 -0.07186,-5.061389 h -1.714078 -1.714079 v 6.349999 6.35 h 4.630208 4.630208 z m 11.1125,0.0415 v -1.29613 l -3.042708,0.12367 -3.042709,0.12367 v -1.47337 -1.47338 h 2.645834 2.645833 v -1.19062 -1.19063 h -2.645833 -2.645834 v -1.19062 -1.190625 h 3.042709 3.042708 v -1.322917 -1.322917 h -4.7625 -4.7625 v 6.349999 6.35 h 4.7625 4.7625 z m 5.159625,-0.0268 0.288319,-1.19062 2.303111,-0.0764 c 1.74217,-0.0578 2.30347,0.007 2.304587,0.26459 8.11e-4,0.18756 0.12547,0.78751 0.277019,1.33321 l 0.275545,0.99219 h 1.793527 1.793528 l -1.865501,-6.35835 -1.8655,-6.358343 -2.767842,0.07449 -2.767841,0.07449 -1.657093,5.556243 c -0.9114,3.05594 -1.733383,5.88936 -1.826627,6.29649 l -0.169534,0.74023 1.797991,-0.0788 1.797991,-0.0788 z m 1.195926,-4.03489 c 0.0074,-0.44032 1.273001,-4.740186 1.446189,-4.913374 0.07467,-0.07467 0.135759,0.109668 0.135759,0.409635 0,0.46219 0.777086,3.264519 1.239164,4.468679 0.109185,0.28453 -0.189197,0.36579 -1.343148,0.36579 -1.013384,0 -1.481756,-0.10481 -1.477964,-0.33073 z m 12.46886,3.10889 -0.0933,-2.249 h 0.908794 c 0.87215,0 0.95592,0.0905 2.07767,2.24583 l 1.16888,2.24582 1.78594,0.003 c 0.98226,0.002 1.78594,-0.0358 1.78594,-0.0833 0,-0.0475 -0.52465,-1.05956 -1.16589,-2.24896 -0.82571,-1.53155 -1.0538,-2.16255 -0.78173,-2.16255 0.21129,0 0.67641,-0.29224 1.0336,-0.64943 0.59432,-0.59431 0.64943,-0.85366 0.64943,-3.05584 0,-2.805903 -0.37069,-3.768398 -1.61894,-4.20354 -0.47651,-0.166112 -2.63098,-0.293359 -4.96898,-0.293478 l -4.127704,-2.1e-4 0.07531,6.350208 0.07531,6.35021 1.644485,4e-5 1.644479,4e-5 z m -0.039,-6.350037 v -1.719792 h 1.666884 c 0.94368,0 1.80462,0.137752 1.98437,0.3175 0.17463,0.174625 0.3175,0.805657 0.3175,1.402292 0,0.596637 -0.14287,1.227667 -0.3175,1.402287 -0.17975,0.17975 -1.04069,0.3175 -1.98437,0.3175 h -1.666884 z m 12.974944,4.564067 c 0.01,-3.83007 0.0306,-3.98789 0.40828,-3.10886 0.21886,0.50932 1.19646,2.32371 2.17245,4.03197 l 1.77454,3.10594 1.91823,0.003 1.91823,0.003 1.2e-4,-6.41614 1.2e-4,-6.41615 h -1.55202 -1.55202 l -0.17897,2.981413 c -0.0984,1.639777 -0.11437,3.425717 -0.0354,3.968747 l 0.14356,0.98734 -0.41578,-0.92604 c -0.22868,-0.50932 -1.20811,-2.2655 -2.17651,-3.902606 l -1.76073,-2.976563 h -1.92473 -1.92472 v 6.349999 6.35 h 1.5875 1.5875 z m 13.74798,-2.31511 v -6.349999 h -1.7198 -1.71979 v 6.349999 6.35 h 1.71979 1.7198 z m 5.5666,2.31511 c 0.01,-3.83007 0.0306,-3.98789 0.40828,-3.10886 0.21886,0.50932 1.19646,2.32371 2.17246,4.03197 l 1.77453,3.10594 1.91823,0.003 1.91823,0.003 v -6.43387 -6.43388 l -1.52136,0.112916 c -0.83674,0.0621 -1.55067,0.139087 -1.5865,0.171074 -0.0358,0.03199 -0.0954,1.684985 -0.13229,3.673329 -0.0369,1.988341 -0.0999,3.615981 -0.13984,3.616971 -0.04,9.9e-4 -0.19504,-0.32563 -0.34457,-0.72581 -0.14954,-0.40018 -1.06126,-2.05841 -2.02605,-3.684949 l -1.75416,-2.957346 -1.93677,-0.08536 -1.93678,-0.08536 6.2e-4,6.416155 6.2e-4,6.41614 h 1.5875 1.5875 z m 44.70423,1.76917 v -2.26572 l 0.84914,0.0829 c 0.7683,0.075 0.95918,0.29074 2.00477,2.26572 l 1.15563,2.18281 h 1.80695 1.80696 l -1.17516,-2.17972 c -0.69321,-1.28581 -1.05556,-2.21959 -0.88355,-2.27693 0.16039,-0.0535 0.61104,-0.37221 1.00146,-0.70832 0.68255,-0.58762 0.70984,-0.71347 0.70984,-3.273557 0,-2.556312 -0.0292,-2.691673 -0.73295,-3.39581 l -0.73296,-0.73337 -4.75715,-0.08285 -4.75715,-0.08285 v 6.366697 6.3667 h 1.85208 1.85209 z m 0,-6.321148 v -1.731881 l 1.52135,0.0041 c 2.06125,0.0055 2.22979,0.153565 2.13192,1.873073 l -0.0814,1.430166 -1.78594,0.0782 -1.78593,0.0782 z m 19.23402,8.069368 c 1.23453,-0.75274 1.47156,-1.86966 1.36327,-6.42381 -0.0915,-3.849273 -0.0967,-3.87751 -0.85114,-4.664565 -1.01642,-1.060347 -2.79717,-1.4647 -5.69181,-1.292441 -4.29347,0.255503 -4.52934,0.600863 -4.52934,6.631786 0,4.03597 0.04,4.39394 0.56571,5.06227 0.82458,1.04829 1.33249,1.16905 4.99054,1.1865 2.8302,0.0135 3.42925,-0.0586 4.15277,-0.49974 z m -6.03861,-2.30193 c -0.26208,-0.31625 -0.36312,-1.2989 -0.36312,-3.53155 0,-3.721242 0.13048,-3.969548 2.08291,-3.963717 2.10941,0.0063 2.13788,0.05293 2.2382,3.666947 0.11232,4.04633 0.007,4.2665 -2.04907,4.2665 -1.11623,0 -1.6467,-0.12176 -1.90892,-0.43818 z m 18.96948,2.43208 c 1.51436,-0.63274 1.70177,-1.44873 1.70177,-7.40936 v -5.167872 h -1.71979 -1.71979 v 4.703632 c 0,5.62545 -0.0915,5.8797 -2.11667,5.8797 -2.02514,0 -2.11666,-0.25425 -2.11666,-5.8797 v -4.703632 h -1.7198 -1.71979 l 0.004,5.225522 c 0.004,5.75271 0.0901,6.14492 1.56044,7.13581 0.8016,0.5402 1.20999,0.60325 3.90725,0.60325 2.04594,0 3.30943,-0.12424 3.93914,-0.38735 z m 7.25802,-1.46473 v -1.85209 l 2.4474,-9.8e-4 c 1.96609,-8e-4 2.6151,-0.10325 3.30019,-0.52096 1.063,-0.64814 1.26479,-1.35846 1.26032,-4.436532 -0.003,-2.313446 -0.0428,-2.484197 -0.73292,-3.174999 -0.7266,-0.727305 -0.74635,-0.730566 -5.22246,-0.862358 l -4.4931,-0.132291 4.9e-4,6.41615 5e-4,6.41614 h 1.71979 1.71979 z m 0,-6.48229 v -1.984379 h 1.53458 c 0.84403,0 1.67746,0.142875 1.85209,0.3175 0.17462,0.174625 0.3175,0.924719 0.3175,1.666879 0,0.74215 -0.14288,1.49225 -0.3175,1.66687 -0.17463,0.17463 -1.00806,0.3175 -1.85209,0.3175 h -1.53458 z M -34.003929,51.907011 V 17.114304 H 101.46273 236.92939 v 34.792707 34.792707 l -0.59531,-0.0052 c -1.31473,-0.01141 -6.44541,-0.798 -7.8294,-1.200337 -4.92516,-1.431783 -7.52973,-4.687721 -10.35903,-12.949706 -1.36042,-3.9726 -1.68536,-5.130094 -5.4347,-19.359432 -3.72358,-14.131567 -5.63581,-20.874211 -7.02594,-24.773933 -3.18796,-8.943107 -6.2325,-11.846759 -9.16328,-8.739229 -1.20721,1.280015 -3.0091,5.088077 -4.38037,9.257348 l -1.14476,3.480586 -0.62466,-1.177493 c -0.77553,-1.461887 -2.44433,-3.159884 -3.32205,-3.380179 -0.38275,-0.09606 -0.98003,-5.22e-4 -1.42043,0.227217 -2.26319,1.170339 -4.01867,4.982243 -6.89601,14.974202 -2.96682,10.302659 -2.62902,9.358734 -3.17302,8.866419 -0.26285,-0.237874 -0.87963,-0.492633 -1.37062,-0.566131 -2.29478,-0.343514 -3.93368,2.048146 -8.19557,11.959852 -4.90922,11.417196 -8.40881,17.755206 -10.93522,19.804447 -2.56712,2.082265 -5.29923,2.903402 -10.99838,3.305574 -2.49664,0.176181 -34.25945,0.271641 -90.950511,0.273344 l -87.114058,0.0026 z M 130.41188,79.582035 c 3.56876,-0.947255 5.85272,-2.824849 7.39449,-6.078839 l 0.83032,-1.752436 0.076,-12.501562 0.076,-12.501562 h -9.7994 -9.7994 v 6.085417 6.085416 h 1.98438 1.98437 v 3.571875 3.571875 h -8.31937 c -8.29707,0 -8.32047,-0.0016 -8.73125,-0.588038 -0.35846,-0.511778 -0.41188,-2.185475 -0.41188,-12.905712 0,-10.720237 0.0534,-12.393934 0.41188,-12.905711 l 0.41188,-0.588038 h 16.12458 16.12458 v -7.408333 -7.408334 h -20.09531 c -13.75915,0 -20.537395,0.09298 -21.497395,0.294902 -4.450662,0.936109 -7.598537,4.122446 -8.561644,8.666252 -0.54426,2.567746 -0.54426,35.072445 0,37.640191 1.113708,5.25432 5.145039,8.712656 10.731433,9.206116 0.945886,0.08355 7.851506,0.134003 15.345836,0.112113 12.93246,-0.03777 13.73262,-0.06809 15.71998,-0.595592 z M -12.289454,63.489264 c 0.01553,-13.836536 0.07532,-16.454741 0.358132,-15.683295 0.186718,0.509323 2.4605983,7.982719 5.0530666,16.607547 l 4.7135788,15.681505 5.7992707,-0.07109 5.7992708,-0.07109 1.9586981,-6.482292 c 1.077285,-3.56526 3.299327,-10.941821 4.937873,-16.392358 l 2.979174,-9.910066 0.06815,16.458503 0.06815,16.458504 h 7.803205 7.803205 V 52.171594 24.258053 H 23.983774 12.915231 L 8.439504,39.58687 C 5.9778542,48.017718 3.8929644,54.834046 3.8064155,54.734265 3.7198666,54.634484 3.1010465,52.647844 2.4312598,50.319511 0.72028845,44.371779 -4.6026193,26.15331 -4.9319046,25.117949 L -5.2053853,24.258053 H -16.983459 -28.761532 l 0.132662,27.847395 c 0.07296,15.316068 0.143581,27.870693 0.156926,27.899168 0.01335,0.02848 3.655671,0.06127 8.094056,0.07288 l 8.069791,0.0211 z m 96.289751,9.518267 6.6e-5,-7.077604 -12.832357,0.07111 -12.832357,0.07111 V 45.165099 24.258053 H 49.6044 40.87315 v 27.913541 27.913541 h 21.563541 21.56354 z m 68.130143,13.222444 c 4.8397,-1.724793 7.98209,-6.363207 14.29044,-21.093798 3.52332,-8.227301 4.66439,-10.448552 5.97635,-11.633834 1.16947,-1.056549 1.76057,-1.153565 2.64836,-0.434675 l 0.61648,0.499199 -0.62857,2.21278 c -1.42501,5.016451 -5.05978,15.641139 -6.30259,18.422871 -4.1449,9.277343 -7.28254,11.727943 -15.80672,12.345561 l -2.11667,0.153362 z m 8.34687,0.110876 c 3.68898,-1.319251 7.10031,-5.795884 10.00918,-13.134882 1.19257,-3.008819 4.30042,-12.462 5.46963,-16.637028 0.43601,-1.556911 0.50228,-1.649419 0.85294,-1.190624 0.58034,0.759289 1.66312,3.24153 3.45953,7.930909 l 1.63134,4.258466 -1.33555,3.943617 c -2.58196,7.62404 -4.72291,10.927197 -8.2259,12.691274 -2.93371,1.477395 -7.73634,2.518126 -11.46985,2.485522 l -1.32986,-0.01161 z m 39.675,0.05565 c -5.67445,-0.587645 -8.67908,-2.132368 -11.17479,-5.745119 -0.95958,-1.38907 -3.44635,-6.609528 -4.82863,-10.136717 l -1.00286,-2.559011 1.35645,-4.849322 c 0.74605,-2.667127 2.48693,-9.314166 3.86861,-14.771197 1.38169,-5.457031 2.61817,-10.279062 2.74774,-10.715625 l 0.23558,-0.79375 0.28515,0.71128 c 0.50732,1.265455 2.59266,8.304304 5.71244,19.281828 4.37276,15.386317 6.40119,21.242394 8.44538,24.381746 1.60351,2.462592 3.73634,4.289054 5.96739,5.110226 0.84833,0.31224 0.3778,0.349743 -4.20413,0.335077 -2.83765,-0.0091 -6.1714,-0.12132 -7.40833,-0.249416 z m 17.85937,-0.0027 c -6.69124,-0.748336 -9.56382,-2.636504 -12.17946,-8.005649 -1.6807,-3.449993 -3.95852,-10.071048 -6.22213,-18.08619 -0.893,-3.162004 -2.51476,-8.904254 -3.60391,-12.760556 -1.08915,-3.856302 -2.45192,-8.402252 -3.02838,-10.102111 l -1.04811,-3.090653 0.9777,-3.259347 c 2.11822,-7.061424 4.34221,-11.329138 5.90385,-11.329138 0.71197,0 2.43045,2.027508 3.4285,4.045042 2.19676,4.440703 3.45255,8.507866 8.63595,27.96954 4.91,18.435166 6.48175,23.409145 8.81787,27.905249 1.3779,2.651906 3.64123,4.966283 5.96034,6.094765 l 1.88278,0.916161 -3.70416,-0.03019 c -2.0373,-0.01661 -4.65667,-0.136721 -5.82084,-0.266919 z M 182.16064,65.311026 c 0,-1.032091 -3.70258,-9.931122 -4.7356,-11.38187 l -0.53375,-0.749576 1.82702,-6.192534 c 3.30366,-11.197486 5.07012,-15.662627 6.79572,-17.177721 0.85468,-0.750421 0.93996,-0.771325 1.64961,-0.404354 0.74941,0.387539 1.95191,2.051595 2.83085,3.917434 0.43646,0.92654 0.44018,1.107494 0.0543,2.645833 -0.54558,2.175067 -6.72398,26.443398 -7.12265,27.977314 -0.30913,1.189383 -0.76551,2.003444 -0.76551,1.365474 z"
         id="path2" /><path
         style="fill:#2590c5"
         d="m 2.5333508,108.32778 c -0.4956928,-0.18101 -1.1505365,-0.6653 -1.4552082,-1.07621 -0.51925604,-0.70031 -0.55001367,-1.03845 -0.49111882,-5.39919 0.0708796,-5.248125 0.20232105,-5.683844 1.85289742,-6.142226 0.5470792,-0.151929 2.4532049,-0.276899 4.235835,-0.27771 l 3.2411457,-0.0015 v 1.446543 1.446543 l -2.9765624,0.07481 -2.9765623,0.07481 -0.073841,3.50789 c -0.089465,4.25019 -0.1677981,4.16557 3.5495698,3.83456 l 2.4173961,-0.21525 0.1558149,1.31562 c 0.0857,0.72359 0.08935,1.38215 0.0081,1.46348 -0.3168114,0.31715 -6.5958825,0.27338 -7.4874787,-0.0522 z m 142.3252292,0.0614 c -1.616,-0.37997 -2.11091,-1.26502 -2.187,-3.91102 -0.10298,-3.5814 0.0514,-6.937874 0.34439,-7.48524 0.59446,-1.110764 1.75594,-1.403534 6.00561,-1.513816 4.51455,-0.117156 4.21731,-0.260971 3.86508,1.870063 l -0.164,0.992188 h -3.13108 c -2.8248,0 -3.15786,0.05006 -3.40496,0.511772 -0.39273,0.733831 -0.35635,6.443683 0.0436,6.843643 0.18469,0.18469 1.07009,0.3175 2.11666,0.3175 h 1.79917 v -1.45521 -1.45521 h -1.05833 -1.05834 v -1.19062 -1.19063 h 2.64584 2.64583 v 3.96875 3.96875 l -3.77031,-0.0271 c -2.07367,-0.0149 -4.18515,-0.12462 -4.69217,-0.24384 z m 18.38436,0.0252 c -1.13279,-0.27337 -1.93037,-0.74648 -2.2429,-1.33045 -0.35776,-0.66848 -0.35622,-9.411224 0.002,-10.080147 0.5933,-1.108585 1.75419,-1.400749 6.0525,-1.52324 3.76163,-0.107196 4.06261,-0.08131 3.90261,0.335635 -0.0953,0.248484 -0.17337,0.918301 -0.17337,1.488483 v 1.036694 h -3.16569 c -2.85904,0 -3.19222,0.04957 -3.43958,0.511772 -0.15064,0.281475 -0.2739,1.777583 -0.2739,3.324683 0,3.72217 0.0712,3.83646 2.39056,3.83646 h 1.84278 v -1.483 -1.483 l -1.05834,0.10093 -1.05833,0.10093 v -1.26376 -1.26377 h 2.64583 2.64584 v 3.96875 3.96875 l -3.63802,-0.0271 c -2.00092,-0.0149 -3.99521,-0.11328 -4.43177,-0.21864 z m -191.955203,-6.37956 v -6.360699 l 2.146235,0.07685 2.146235,0.07685 1.008119,2.533544 c 0.554466,1.393449 1.090192,2.971025 1.190503,3.505735 0.18603,0.99162 0.647248,1.3478 0.659326,0.50916 0.0037,-0.25466 0.569215,-1.87489 1.256771,-3.600515 l 1.250102,-3.137492 2.116667,0.0028 2.116667,0.0028 v 6.375467 6.37547 l -1.521355,3.7e-4 -1.521354,3.7e-4 -0.01012,-4.43177 -0.01011,-4.431769 -0.746536,2.248959 c -0.410595,1.23692 -0.954752,2.75497 -1.209238,3.37344 l -0.462702,1.12447 h -1.531241 -1.531241 l -1.048992,-2.97656 c -0.576946,-1.63711 -1.109781,-3.15515 -1.184079,-3.373434 -0.0743,-0.218282 -0.07327,1.597424 0.0023,4.034894 l 0.137361,4.43177 h -1.626645 -1.626646 z m 17.30342,0.0247 1.8788709,-6.358406 2.6485577,-0.0028 2.6485576,-0.0028 1.8701933,6.349996 1.87019327,6.35 H -2.2728524 -4.0532346 l -0.3173628,-1.32292 -0.3173628,-1.32291 h -2.2145621 -2.2145622 l -0.3655144,1.25677 -0.3655143,1.25677 -1.7197998,0.0773 -1.7198,0.0773 z m 5.8155993,0.71364 c -0.1099848,-0.32743 -0.4524708,-1.53128 -0.76108,-2.67523 l -0.5611077,-2.079904 -0.6069344,2.212204 c -0.333814,1.21671 -0.6680814,2.42056 -0.7428166,2.67522 -0.1181514,0.4026 0.060356,0.46302 1.3680144,0.46302 1.4424587,0 1.4957273,-0.0243 1.3039243,-0.59531 z m 17.3622287,-0.72761 v -6.349999 h 1.719792 1.719791 v 2.38125 2.381249 h 2.135444 2.135444 l -0.08492,-2.381856 -0.08492,-2.381858 1.785937,6.08e-4 1.785938,6.07e-4 v 6.349999 6.35 l -1.785938,2.1e-4 -1.785937,2.1e-4 0.05044,-2.51375 0.05044,-2.51375 h -2.100965 -2.100966 v 2.51354 2.51354 h -1.719791 -1.719792 z m 13.229166,0 v -6.349999 h 1.719792 1.719791 v 6.349999 6.35 h -1.719791 -1.719792 z m 5.55625,0 v -6.349999 l 1.918229,7.55e-4 1.918229,7.55e-4 1.645161,2.712683 c 0.904839,1.491976 1.882361,3.188276 2.17227,3.769556 l 0.527109,1.05688 0.01038,-3.836462 0.01038,-3.836458 1.653807,0.03757 1.653807,0.03757 0.07088,6.38979 0.07088,6.38979 -2.036979,-0.0774 -2.036979,-0.0774 -1.426706,-2.38125 c -0.784689,-1.30969 -1.769713,-3.09563 -2.188942,-3.96875 l -0.762236,-1.5875 -0.01214,4.0349 -0.01214,4.03489 h -1.5875 -1.5875 z m 13.758332,0 v -6.349999 h 4.776997 4.776997 l -0.08064,1.256771 -0.08064,1.256771 -2.976562,0.07481 -2.976562,0.07481 v 1.18196 1.181957 h 2.645833 2.645833 v 1.19063 1.19062 h -2.65966 -2.65966 l 0.07997,1.35709 0.07997,1.35709 2.976563,-0.0485 2.976562,-0.0485 v 1.33727 1.33726 h -4.7625 -4.7625 z m 16.404166,0 v -6.349999 h 1.714079 1.714078 l 0.07186,5.061389 0.07186,5.06139 2.844271,-0.049 2.84427,-0.049 v 1.33764 1.33763 h -4.630208 -4.630208 z m 10.847916,0 v -6.349999 h 4.7625 4.7625 v 1.322917 1.322917 h -3.042708 -3.042709 v 1.190625 1.19062 h 2.645834 2.645833 v 1.19063 1.19062 h -2.645833 -2.645834 v 1.47338 1.47337 l 3.042709,-0.12367 3.042708,-0.12367 v 1.29613 1.29613 h -4.7625 -4.7625 z m 10.969857,5.63503 c 0.09324,-0.40713 0.915227,-3.24055 1.826627,-6.29649 l 1.657093,-5.556247 2.767841,-0.07449 2.767842,-0.07449 1.8655,6.358347 1.865501,6.35835 h -1.793528 -1.793527 l -0.275545,-0.99219 c -0.151549,-0.5457 -0.276208,-1.14565 -0.277019,-1.33321 -0.0011,-0.25797 -0.562417,-0.32241 -2.304587,-0.26459 l -2.303111,0.0764 -0.288319,1.19062 -0.28832,1.19063 -1.797991,0.0788 -1.797991,0.0788 z m 7.731806,-4.6779 c -0.462078,-1.20416 -1.239164,-4.006489 -1.239164,-4.468679 0,-0.299967 -0.06109,-0.484302 -0.135759,-0.409635 -0.173188,0.173188 -1.438798,4.473054 -1.446189,4.913374 -0.0038,0.22592 0.46458,0.33073 1.477964,0.33073 1.153951,0 1.452333,-0.0813 1.343148,-0.36579 z m 6.376768,-0.95734 -0.07531,-6.350208 4.127704,2.1e-4 c 2.338,1.19e-4 4.49247,0.127366 4.96898,0.293478 1.24825,0.435142 1.61894,1.397637 1.61894,4.20354 0,2.20218 -0.0551,2.46153 -0.64943,3.05584 -0.35719,0.35719 -0.82231,0.64943 -1.0336,0.64943 -0.27207,0 -0.044,0.631 0.78173,2.16255 0.64124,1.1894 1.16589,2.20143 1.16589,2.24896 0,0.0475 -0.80368,0.085 -1.78594,0.0833 l -1.78594,-0.003 -1.16888,-2.24582 c -1.12175,-2.15528 -1.20552,-2.24583 -2.07767,-2.24583 h -0.908794 l 0.0933,2.249 0.09329,2.249 -1.644506,-4e-5 -1.644485,-4e-5 z m 6.883234,-0.84646 c 0.17463,-0.17462 0.3175,-0.80565 0.3175,-1.402287 0,-0.596635 -0.14287,-1.227667 -0.3175,-1.402292 -0.17975,-0.179748 -1.04069,-0.3175 -1.98437,-0.3175 h -1.66688 v 1.719792 1.719787 h 1.66688 c 0.94368,0 1.80462,-0.13775 1.98437,-0.3175 z m 6.13833,0.84667 v -6.349999 h 1.92472 1.92473 l 1.76073,2.976563 c 0.9684,1.637106 1.94783,3.393286 2.17651,3.902606 l 0.41578,0.92604 -0.14356,-0.98734 c -0.079,-0.54303 -0.063,-2.32897 0.0354,-3.968747 l 0.17897,-2.981413 h 1.55202 1.55202 l -1.2e-4,6.41615 -1.2e-4,6.41614 -1.91823,-0.003 -1.91823,-0.003 -1.77454,-3.10594 c -0.97599,-1.70826 -1.95359,-3.52265 -2.17245,-4.03197 -0.37772,-0.87903 -0.39845,-0.72121 -0.40828,3.10886 l -0.0104,4.03489 h -1.5875 -1.5875 z m 13.49375,0 v -6.349999 h 1.71979 1.7198 v 6.349999 6.35 h -1.7198 -1.71979 z m 5.82022,-0.0661 -6.2e-4,-6.41615 1.93678,0.08536 1.93677,0.08536 1.75416,2.957346 c 0.96479,1.626534 1.87651,3.284774 2.02605,3.684954 0.14953,0.40018 0.30459,0.7268 0.34457,0.72581 0.04,-9.9e-4 0.10291,-1.62863 0.13984,-3.616976 0.0369,-1.988344 0.0965,-3.641342 0.13229,-3.673329 0.0358,-0.03199 0.74976,-0.10897 1.5865,-0.171074 l 1.52136,-0.112916 v 6.433875 6.43387 l -1.91823,-0.003 -1.91823,-0.003 -1.77453,-3.10594 c -0.976,-1.70826 -1.9536,-3.52265 -2.17246,-4.03197 -0.37772,-0.87903 -0.39845,-0.72121 -0.40828,3.10887 l -0.0103,4.03489 h -1.5875 -1.5875 z m 44.18603,0.0494 v -6.366701 l 4.75715,0.08285 4.75715,0.08285 0.73296,0.73337 c 0.70373,0.704137 0.73295,0.839498 0.73295,3.39581 0,2.560091 -0.0273,2.685941 -0.70984,3.273561 -0.39042,0.33611 -0.84107,0.65486 -1.00146,0.70832 -0.17201,0.0573 0.19034,0.99112 0.88355,2.27693 l 1.17516,2.17972 h -1.80696 -1.80695 l -1.15563,-2.18281 c -1.04559,-1.97498 -1.23647,-2.19071 -2.00477,-2.26572 l -0.84914,-0.0829 v 2.26572 2.26572 h -1.85209 -1.85208 z m 7.35744,-2.074924 c 0.0979,-1.719508 -0.0707,-1.867584 -2.13192,-1.873073 l -1.52135,-0.0041 v 1.731881 1.731876 l 1.78593,-0.0782 1.78594,-0.0782 z m 7.56192,8.182314 c -0.30733,-0.12417 -0.81334,-0.5494 -1.12448,-0.94495 -0.52571,-0.66833 -0.56571,-1.0263 -0.56571,-5.06227 0,-6.030923 0.23587,-6.376283 4.52934,-6.631786 2.89464,-0.172259 4.67539,0.232094 5.69181,1.292441 0.75446,0.787055 0.75961,0.815292 0.85114,4.664565 0.1546,6.50168 -0.20171,6.94891 -5.51604,6.92355 -1.81901,-0.009 -3.55874,-0.11738 -3.86606,-0.24155 z m 5.73046,-2.67413 c 0.18604,-0.34762 0.26301,-1.72366 0.20775,-3.71431 -0.10032,-3.614019 -0.12879,-3.660648 -2.2382,-3.666947 -1.95243,-0.0058 -2.08291,0.242475 -2.08291,3.963717 0,3.78561 0.10538,3.96973 2.27204,3.96973 1.29649,0 1.59346,-0.0891 1.84132,-0.55219 z m 7.37285,2.33019 c -1.47038,-0.99089 -1.55614,-1.3831 -1.56044,-7.13581 l -0.004,-5.225522 h 1.71979 1.7198 v 4.703632 c 0,5.62545 0.0915,5.8797 2.11666,5.8797 2.02514,0 2.11667,-0.25425 2.11667,-5.8797 v -4.703632 h 1.71979 1.71979 v 5.167872 c 0,7.56346 -0.16876,7.79671 -5.64091,7.79671 -2.69726,0 -3.10565,-0.0631 -3.90725,-0.60325 z m 11.66433,-5.81289 -4.9e-4,-6.41615 4.4931,0.132291 c 4.47611,0.131792 4.49586,0.135053 5.22246,0.862358 0.69014,0.690802 0.72956,0.861553 0.73292,3.174999 0.004,3.078072 -0.19732,3.788392 -1.26032,4.436532 -0.68509,0.41771 -1.3341,0.52016 -3.30019,0.52096 l -2.4474,9.8e-4 v 1.85209 1.85208 h -1.71979 -1.71979 z m 6.82675,-0.25136 c 0.17462,-0.17462 0.3175,-0.92472 0.3175,-1.66687 0,-0.74216 -0.14288,-1.492254 -0.3175,-1.666879 -0.17463,-0.174625 -1.00806,-0.3175 -1.85209,-0.3175 h -1.53458 v 1.984379 1.98437 h 1.53458 c 0.84403,0 1.67746,-0.14287 1.85209,-0.3175 z M -34.003929,87.364609 v -0.664891 l 87.114058,-0.0026 c 56.691061,-0.0017 88.453871,-0.09716 90.950511,-0.273344 5.69915,-0.402172 8.43126,-1.223309 10.99838,-3.305574 2.52641,-2.049241 6.026,-8.387251 10.93522,-19.804447 4.26189,-9.911706 5.90079,-12.303366 8.19557,-11.959852 0.49099,0.0735 1.10777,0.328257 1.37062,0.566131 0.544,0.492315 0.2062,1.43624 3.17302,-8.866419 2.87734,-9.991959 4.63282,-13.803863 6.89601,-14.974202 0.4404,-0.227739 1.03768,-0.323281 1.42043,-0.227217 0.87772,0.220295 2.54652,1.918292 3.32205,3.380179 l 0.62466,1.177493 1.14476,-3.480586 c 1.37127,-4.169271 3.17316,-7.977333 4.38037,-9.257348 2.93078,-3.10753 5.97532,-0.203878 9.16328,8.739229 1.39013,3.899722 3.30236,10.642366 7.02594,24.773933 3.74934,14.229338 4.07428,15.386832 5.4347,19.359432 1.6068,4.692085 3.16957,7.749788 4.936,9.657748 2.38187,2.572708 4.99489,3.591445 10.87118,4.238344 2.86307,0.315184 2.97656,0.351592 2.97656,0.954856 v 0.627177 l -16.20573,-0.0023 c -20.51714,-0.0029 -23.88309,-0.27369 -27.88567,-2.243691 -3.52771,-1.73628 -5.57159,-4.676637 -8.96835,-12.901971 l -1.28406,-3.109383 -0.96904,2.712508 c -3.83306,10.729314 -6.36794,13.188875 -15.41643,14.958357 -1.95415,0.382145 -11.74187,0.431304 -101.183732,0.508189 l -99.020307,0.08512 z M 157.02523,86.006517 c 5.31601,-1.039962 8.19251,-3.940623 11.70568,-11.803999 1.24281,-2.781732 4.87758,-13.40642 6.30259,-18.422871 l 0.62857,-2.21278 -0.61648,-0.499199 c -0.88779,-0.71889 -1.47889,-0.621874 -2.64836,0.434675 -1.31196,1.185282 -2.45303,3.406533 -5.97635,11.633834 -6.30835,14.730591 -9.45074,19.369005 -14.29044,21.093798 l -1.32292,0.471466 2.11667,-0.153362 c 1.16416,-0.08435 3.00963,-0.328053 4.10104,-0.541562 z m 7.41527,0.419092 c 5.06638,-0.619415 8.83579,-2.187563 11.03047,-4.58889 1.70025,-1.860348 3.37949,-5.264512 5.09341,-10.32541 l 1.33555,-3.943617 -1.63134,-4.258466 c -1.79641,-4.689379 -2.87919,-7.17162 -3.45953,-7.930909 -0.35066,-0.458795 -0.41693,-0.366287 -0.85294,1.190624 -1.16921,4.175028 -4.27706,13.628209 -5.46963,16.637028 -2.90887,7.338998 -6.3202,11.815631 -10.00918,13.134882 l -0.93854,0.335641 1.32986,0.01161 c 0.73142,0.0064 2.33876,-0.111736 3.57187,-0.262496 z m 47.32427,-0.114768 c -2.23105,-0.821172 -4.36388,-2.647634 -5.96739,-5.110226 -2.04419,-3.139352 -4.07262,-8.995429 -8.44538,-24.381746 -3.11978,-10.977524 -5.20512,-18.016373 -5.71244,-19.281828 l -0.28515,-0.71128 -0.23558,0.79375 c -0.12957,0.436563 -1.36605,5.258594 -2.74774,10.715625 -1.38168,5.457031 -3.12256,12.10407 -3.86861,14.771197 l -1.35645,4.849322 1.00286,2.559011 c 1.38228,3.527189 3.86905,8.747647 4.82863,10.136717 3.28679,4.7579 7.00549,5.957478 18.58312,5.994535 4.58193,0.01467 5.05246,-0.02284 4.20413,-0.335077 z m 13.88913,-0.536108 c -2.31911,-1.128482 -4.58244,-3.442859 -5.96034,-6.094765 -2.33612,-4.496104 -3.90787,-9.470083 -8.81787,-27.905249 -5.1834,-19.461674 -6.43919,-23.528837 -8.63595,-27.96954 -0.99805,-2.017534 -2.71653,-4.045042 -3.4285,-4.045042 -1.56164,0 -3.78563,4.267714 -5.90385,11.329138 l -0.9777,3.259347 1.04811,3.090653 c 0.57646,1.699859 1.93923,6.245809 3.02838,10.102111 1.08915,3.856302 2.71091,9.598552 3.60391,12.760556 3.56859,12.635884 6.45263,19.834866 8.92529,22.27881 1.67471,1.655255 2.96519,2.384659 5.37526,3.0382 2.62387,0.711516 5.41953,1.005047 9.92188,1.041748 l 3.70416,0.03019 z M 182.92615,63.945552 c 0.39867,-1.533916 6.57707,-25.802247 7.12265,-27.977314 0.38587,-1.538339 0.38215,-1.719293 -0.0543,-2.645833 -0.87894,-1.865839 -2.08144,-3.529895 -2.83085,-3.917434 -0.70965,-0.366971 -0.79493,-0.346067 -1.64961,0.404354 -1.7256,1.515094 -3.49206,5.980235 -6.79572,17.177721 l -1.82702,6.192534 0.53375,0.749576 c 1.03302,1.450748 4.7356,10.349779 4.7356,11.38187 0,0.63797 0.45638,-0.176091 0.76551,-1.365474 z M 99.346064,80.065514 c -5.586394,-0.49346 -9.617725,-3.951796 -10.731433,-9.206116 -0.54426,-2.567746 -0.54426,-35.072445 0,-37.640191 0.963107,-4.543806 4.110982,-7.730143 8.561644,-8.666252 0.96,-0.201918 7.738245,-0.294902 21.497395,-0.294902 h 20.09531 v 7.408334 7.408333 H 122.6444 106.51982 l -0.41188,0.588038 c -0.35846,0.511777 -0.41188,2.185474 -0.41188,12.905711 0,10.720237 0.0534,12.393934 0.41188,12.905712 0.41078,0.586461 0.43418,0.588038 8.73125,0.588038 h 8.31937 v -3.571875 -3.571875 h -1.98437 -1.98438 v -6.085416 -6.085417 h 9.7994 9.7994 l -0.076,12.501562 -0.076,12.501562 -0.83032,1.752436 c -1.54177,3.25399 -3.82573,5.131584 -7.39449,6.078839 -1.98736,0.527502 -2.78752,0.557818 -15.71998,0.595592 -7.49433,0.02189 -14.39995,-0.02856 -15.345836,-0.112113 z m -127.818008,-0.0609 c -0.01335,-0.02848 -0.08396,-12.5831 -0.156926,-27.899168 l -0.132662,-27.847395 h 11.778073 11.7780737 l 0.2734807,0.859896 c 0.3292853,1.035361 5.65219305,19.25383 7.3631644,25.201562 0.6697867,2.328333 1.2886068,4.314973 1.3751557,4.414754 0.086549,0.09978 2.1714387,-6.716547 4.6330885,-15.147395 l 4.475727,-15.328817 h 11.068543 11.068543 v 27.913541 27.913541 h -7.803205 -7.803205 l -0.06815,-16.458504 -0.06815,-16.458503 -2.979174,9.910066 C 14.691887,62.528729 12.469845,69.90529 11.39256,73.47055 l -1.9586981,6.482292 -5.7992708,0.07109 -5.7992707,0.07109 -4.7135788,-15.681505 C -9.4707267,55.788689 -11.744607,48.315293 -11.931325,47.80597 c -0.282814,-0.771446 -0.342601,1.846759 -0.358132,15.683295 l -0.01864,16.609335 -8.069791,-0.0211 c -4.438385,-0.01161 -8.08071,-0.0444 -8.094056,-0.07288 z M 40.87315,52.171594 V 24.258053 h 8.73125 8.731249 v 20.907046 20.907045 l 12.832357,-0.07111 12.832357,-0.07111 -6.6e-5,7.077604 -6.6e-5,7.077604 H 62.436691 40.87315 Z"
         id="path1" /></g></g></svg>
